<?xml version="1.0" standalone="no"?><!DOCTYPE svg PUBLIC "-//W3C//DTD SVG 1.1//EN" "http://www.w3.org/Graphics/SVG/1.1/DTD/svg11.dtd"><svg t="1553501901172" class="icon" style="" viewBox="0 0 1024 1024" version="1.1" xmlns="http://www.w3.org/2000/svg" p-id="2808" xmlns:xlink="http://www.w3.org/1999/xlink" width="200" height="200"><defs><style type="text/css"></style></defs><path d="M966.2464 17.7408c-47.9488 40.8064-104.5504 53.8368-165.8368 49.92-55.936-3.584-111.7184-2.1504-166.6048 8.448-83.0464 16.0256-152.832 56.9344-208.9216 120.4736-46.9248 53.1712-78.1824 114.9696-99.072 182.3744a305.2288 305.2288 0 0 0-14.3104 94.7456c1.024 89.3696 0.3584 178.7392 0.3584 268.1344 0 14.9248-17.3312 33.4592-32.256 33.5616a111.0528 111.0528 0 0 1-24.6784-2.4576c-16.4864-3.5584-26.624-16.9984-26.5472-33.6384 0.4096-82.2016 0.9216-164.4288 1.1008-246.656 0.0512-24.0384 1.6384-48.1536-0.7936-72.1408-2.8928-28.6976-14.6176-39.68-43.1616-40.6272-1.5872-0.0512-2.5344-0.1536-3.072-1.9712-2.176-7.552-3.2512-14.72 2.688-21.376 4.864-5.4272 10.7264-8.3968 17.8432-9.5488 9.4208-1.5104 18.4576 1.0496 27.6224 2.2528 21.0944 2.7904 41.2416 2.6624 60.6208-9.1904 21.7344-13.312 34.304-39.8592 30.5152-65.8176-7.9616 11.6736-19.5328 18.432-29.7216 26.7776a40.8832 40.8832 0 0 1-21.2224 9.1648c-19.9424 2.6624-39.936 2.3552-59.9296 1.3568a51.4048 51.4048 0 0 0-23.0656 3.712c-20.8384 8.8064-27.3664 26.624-28.8 47.104-0.3584 5.2736-1.5616 6.5536-6.784 6.5792-34.7904 0.1792-69.5808 0.6912-104.3712 1.28-2.3808 0.0512-6.5792-2.2528-6.4512 3.584 0.0768 4.7104 1.6384 6.528 6.6048 6.7072 10.7008 0.4096 21.376 1.5104 32.0512 2.3552 18.6624 1.4848 31.6416 10.7008 38.3232 28.3392 4.3008 11.392 4.0704 23.296 4.1728 35.2512 0.896 110.7968 1.5872 221.6192 3.1744 332.4416 0.6656 47.7952 21.76 85.9136 63.0528 110.0288 52.096 30.4128 107.6736 32.4864 163.7888 11.8272 48.8448-17.9712 77.824-60.9024 78.0288-112.8704l1.024-255.9488c0.1024-22.912-1.664-45.9776 0.7936-68.608a326.6048 326.6048 0 0 1 29.3888-103.9616c46.6176-99.2256 125.6192-155.3664 232.8832-172.2368 24.8064-3.8656 50.3552-3.1744 75.5456-4.4288 29.1072-1.4336 57.6256-4.48 84.5056-17.7152 62.1568-30.6432 101.0432-80.64 123.2896-144.9728 1.9456-5.5808 4.096-11.136 4.5824-19.6096-6.2976 6.784-10.8544 12.672-16.3584 17.3568z" fill="#d81e06" p-id="2809"></path><path d="M889.1392 190.1568c-18.9952 15.9744-41.7536 23.04-65.408 28.416-38.6048 8.8064-77.824 10.1376-117.1712 10.0352-53.3504-0.1536-100.4032 17.4592-141.056 51.6096-38.4768 32.256-62.8224 74.1376-79.4112 120.9088-11.5968 32.7168-17.9456 66.1504-17.6128 101.3248 0.9216 100.5568 0.3072 201.1136 0.3584 301.696 0 4.096-0.384 8.0384-1.4848 11.9808-6.9888 25.0368-17.6128 48.3072-33.6128 68.8384-22.912 29.3888-50.3808 52.4544-87.8848 61.0304-14.6176 3.3536-29.2096 6.784-44.1856 8.1664-46.5408 4.4032-89.8304-2.5088-126.1312-35.6352 1.28 2.7392 2.4832 5.5296 3.8912 8.2176 12.5952 24.192 31.3856 42.4704 55.04 55.5008 42.752 23.552 88.576 34.1504 137.4208 30.08 83.8144-6.9888 144.5888-47.488 179.3536-124.9024a185.984 185.984 0 0 0 16.8192-78.7968c-0.768-104.1408-0.6144-208.3072-0.1792-312.448 0.2048-43.2128 14.976-81.664 43.008-114.56 29.1072-34.1504 67.5328-52.5824 110.3616-62.9248 20.8896-5.0688 42.5472-4.9664 63.5904-8.0384 52.1984-7.6288 89.5488-36.2752 110.208-85.4784 7.8592-18.7136 12.6976-41.0624 11.7248-53.1712-5.5296 6.784-11.264 12.7744-17.6384 18.1504z" fill="#d81e06" p-id="2810"></path><path d="M818.944 418.304c-26.24-11.8016-54.0416-14.6688-82.3552-13.9776-63.488 1.5872-115.84 55.168-116.48 118.8608-0.9216 94.1312-1.8688 188.2624-2.9184 282.368-0.1024 11.904 0.9728 23.9872-1.2544 35.6864-6.8096 35.9168-21.0944 68.6336-44.6976 96.7424-36.608 43.52-84.352 67.8912-139.0848 80l-11.2128 2.4832c2.5344 1.4848 4.8128 1.6384 7.0912 1.8432 2.3808 0.2048 4.7616 0.4608 7.1168 0.5888 56.704 3.6352 110.1312-6.3232 157.4144-39.7056 42.9056-30.2848 70.6048-72.1152 89.2416-120.3968 9.8048-25.3184 18.7904-51.1488 19.0208-78.6688 0.6656-82.6624 0.7424-165.376 0.9984-248.064a66.304 66.304 0 0 1 1.92-16.9728 9.6768 9.6768 0 0 1 3.7376-5.8112c27.7248-20.0704 72.5248-3.84 81.0752 29.4912 2.9952 11.648-2.9696 27.5968-12.8 34.2272-9.2416 6.2208-21.1968 4.864-32.3584-3.9424-3.8144-3.0464-7.2192-6.656-11.3408-10.4704 3.1488 17.7152 8.3456 33.9968 18.8416 47.9232 17.8688 23.7056 40.9856 35.3536 71.3984 29.8752 37.9904-6.8352 63.104-31.1808 69.376-68.9408 3.1488-18.944 1.8176-38.0928-1.0496-56.96-6.7584-44.6208-29.9008-77.44-71.68-96.1792z" fill="#d81e06" p-id="2811"></path></svg>