<?xml version="1.0" standalone="no"?><!DOCTYPE svg PUBLIC "-//W3C//DTD SVG 1.1//EN" "http://www.w3.org/Graphics/SVG/1.1/DTD/svg11.dtd"><svg t="1553501912222" class="icon" style="" viewBox="0 0 3150 1024" version="1.1" xmlns="http://www.w3.org/2000/svg" p-id="3175" xmlns:xlink="http://www.w3.org/1999/xlink" width="615.234375" height="200"><defs><style type="text/css"></style></defs><path d="M1236.519385 286.326154h-57.01317s-32.894031 8.176246-21.409477-28.530216l4.867939-22.386215c4.962462-26.497969 45.512862-20.401231 45.512861-20.401231h44.819693l-16.777846 71.317662M1172.086154 147.786831s-65.394215 4.080246-78.6432 93.751138l-41.101785 242.451693h73.397169l22.953354-134.490585h69.364185l-20.999877 134.490585h73.365662l64.701046-336.202831H1172.086154z m1880.127015 138.539323h-57.076184s-32.925538 8.176246-19.377231-28.530216l2.804184-22.386215c4.978215-26.497969 45.607385-20.401231 45.607385-20.401231h44.803939l-16.762093 71.317662z m-62.432492-138.539323s-67.410708 4.080246-78.580185 93.751138l-41.1648 242.451693h71.286154l23.1424-134.490585h71.254646l-20.952615 134.490585h73.381415L3150.769231 147.786831h-160.988554z m-1497.765415 0h-85.574893l-66.780554 336.202831h85.559139l66.796308-336.202831z m1096.325907 0h-93.751138l-64.653785 336.202831h91.687385l66.717538-336.202831zM2725.415385 484.005415h75.382153l66.701785-336.218584h-75.319138l-32.704985 177.309538-24.402708-177.309538h-77.445907l-66.7648 336.218584h77.477415l30.247385-165.0688L2725.415385 484.005415zM2341.809231 147.786831l-24.528739 118.1696h-50.91643l24.465723-118.1696h-85.6064l-66.701785 336.202831h85.574892l29.790523-152.843816h50.947939l-29.822031 152.843816h85.669415l66.701785-336.202831h-85.574892z m-642.914462 87.622892l-9.4208 36.6592c-9.483815 36.674954-35.666708 28.545969-35.666707 28.545969h-57.044677l21.2992-85.622154h44.866953c0 0.015754 40.912738-6.065231 35.966031 20.416985z m21.346462-87.622892H1559.315692l-72.940307 336.202831h73.44443l28.593231-120.186093 16.273723 2.000739 28.498708 118.185354h77.4144L1684.086154 365.804308s57.202215-2.000738 68.182646-85.559139l9.483815-38.7072c23.536246-89.670892-41.511385-93.751138-41.511384-93.751138z m300.551877 203.760246l-12.398277 65.189415h-59.076923l37.635938-201.728h61.077662l-14.651077 69.30117h79.478154l17.408-89.655139c7.041969-26.497969-10.586585-48.915692-37.021539-48.915692h-128.393846c-26.497969 0-51.751385 22.417723-56.745354 48.915692l-49.136246 240.450954c-4.946708 26.482215 12.524308 48.884185 39.053785 48.884185h126.3616c26.466462 0 53.783631-22.401969 58.746092-48.884185l17.171692-83.574154h-79.509661z m984.032492 298.015508c-9.357785 0-17.140185-16.7936-12.429785-25.206154 27.931569-26.923323 55.941908-48.805415 93.231262-62.211939 23.315692-3.387077 35.84 21.9136 32.736492 43.685416-9.4208 92.490831-4.741908 179.908923-12.524307 270.7456 0 8.365292-4.584369 30.278892-17.07717 21.882092-15.470277-16.856615-27.994585-38.675692-40.424369-60.526277 12.429785 0 20.212185 16.7936 32.610462 16.7936 4.678892 0 7.813908-5.072738 7.813907-8.428308 0-82.345354-3.135015-161.413908 0-243.822277 0-5.041231-7.813908-13.453785-15.470277-10.0352-20.243692 18.432-35.871508 31.901538-52.948677 53.783631-3.119262 0.015754-12.398277 3.339815-15.517538 3.339816z m23.299938 126.125292c-3.135015 10.066708-1.575385 23.536246-9.326276 28.577477-7.750892 3.355569-15.533292-3.355569-15.533293-8.428308 0-11.783877 15.533292-31.901538 29.506954-23.567754l-4.647385 3.418585z m24.922585-30.278892c-20.2752-13.501046-35.84 18.526523-52.885661 30.278892-3.040492 0-7.750892 0-7.750893-3.418585-4.7104-13.390769 4.7104-21.819077 7.750893-30.215877 7.7824-13.453785 20.180677-13.453785 32.610461-21.850584 7.813908-10.161231 4.678892-21.882092 7.813908-35.320123 0 0-1.575385-5.009723-3.135016-8.428308-9.326277-8.365292-32.610462-13.422277-32.610461-4.978215-7.719385 43.653908-24.891077 87.418092-20.212185 131.103507 0 5.041231 3.072 13.453785 7.7824 16.7936 12.429785 5.072738 24.796554-3.355569 35.729723 0 9.326277 5.072738 24.922585 0 29.538462-8.3968 3.103508-13.422277 3.103508-25.237662 3.103508-38.7072-3.119262-8.333785-3.119262-21.803323-7.735139-26.860307zM1056.988554 698.336492l4.726154 3.387077c-4.726154 8.365292-9.357785 18.495015-12.4928 26.923323h-12.461293c-12.461292-18.558031-32.610462-48.773908-15.501784-60.557784 15.501785-13.453785 20.180677 11.783877 23.252677 25.206154 4.7104 5.041231 7.829662 5.041231 12.477046 5.04123z m93.278523-18.463507c-29.506954 5.009723-17.155938-33.634462-12.445539-52.129477 3.087754-16.856615 35.776985-21.882092 43.559385 0 4.631631 21.819077-10.933169 48.7424-31.113846 52.129477z m31.113846-87.4496c-15.549046-8.365292-28.026092 13.453785-43.559385 10.066707-12.477046-10.066708 0-21.850585 0-35.288615s-4.7104-21.882092-12.477046-30.278892h-12.366769c0 25.237662 7.766646 52.129477 0 77.351384-3.135015 26.891815-40.455877 31.964554-43.543631 65.599016 15.501785-3.387077 27.963077-16.825108 40.408616-30.3104 3.135015 0 7.7824 0 7.7824 5.072738 3.119262 21.850585 7.703631 47.072492-7.7824 55.453539-17.108677 10.129723-40.408615 13.469538-40.408616 40.377107 3.087754 0 7.735138 3.355569 7.735139 3.355569 12.461292-3.355569 23.315692-8.3968 32.673477-21.9136 3.135015-3.292554 10.901662 5.104246 10.901661 10.161231-3.119262 52.129477-10.901662 99.233477 0 151.315693 4.600123 5.072738 9.310523 13.469538 9.310523 10.129723 10.838646-62.211938-20.212185-122.801231 7.750893-174.8992 12.445538-26.891815 43.559385-43.716923 63.708553-65.567508 17.124431-21.882092 0.015754-57.170708-20.133415-70.624492z m186.509785 237.048123c7.7824-3.355569 15.533292 0 20.212184-10.066708 0 5.041231 3.087754 5.041231 7.7824 5.041231v13.453784c-12.461292 8.3968-27.994585 8.3968-40.424369 21.882093-12.398277 8.3968-15.580554-10.129723-15.580554-18.495016-0.015754-8.428308 15.580554-8.428308 28.010339-11.815384z m-20.212185-105.897354c3.119262-3.355569 7.766646-13.501046 15.549046-8.3968 4.647385 0 4.647385 5.041231 4.647385 8.3968-4.647385 5.041231-4.647385 5.041231-4.647385 8.333784 0 5.104246-4.663138 10.161231-7.7824 10.161231-4.647385-5.056985-12.382523-10.161231-7.766646-18.495015z m76.201354-30.278892c0-38.675692 15.486031-73.964308 20.164923-112.64-20.164923-18.495015-45.056-13.453785-65.315446 0-43.464862 33.634462-43.464862 90.805169-71.459446 139.563323-4.663138 3.355569-7.719385 0-7.719385-5.041231-4.757662-21.882092 1.480862-42.062769 7.719385-65.599016 3.103508-16.7936-4.663138-30.247385-17.140185-35.288615-3.103508 84.062523 9.4208 166.423631 4.663139 248.832 4.757662 0 7.813908 0 7.813907 5.072739 17.077169-52.160985-15.580554-109.300185 17.077169-158.121354h15.580554c15.517538 10.161231 0 26.954831 4.600123 40.392861 0 3.355569 3.182277 3.355569 7.798154 3.355569 3.119262-3.355569 3.119262-3.355569 7.766646-3.355569 3.119262 0 7.7824 3.355569 3.119262 8.428308-7.766646 8.365292-10.885908 13.390769-15.501785 21.819077-3.182277 5.041231-7.7824 0-7.7824-5.041231-4.7104 5.041231-4.7104 13.469538-7.7824 21.882092h7.7824c15.517538-11.783877 20.180677-30.278892 32.610462-47.072492h7.798154c12.398277 16.7936-4.663138 35.288615-12.461293 47.072492 7.7824 0 7.7824-3.355569 12.461293-8.3968 7.735138-8.428308 12.398277 13.453785 20.180677 5.041231 0-5.041231-7.7824-13.469538-7.7824-18.526523 3.103508-11.720862 0-30.247385 10.917415-38.644185-3.135015 0-3.135015-5.104246-3.135015-8.3968-7.7824 0-20.180677 0-24.843816-8.3968 0-18.526523 0-31.964554-3.135015-43.716923-9.310523-21.882092-12.429785 16.7936-27.994585 25.206154-9.326277 5.072738-20.180677 0-17.045661-13.453784 7.719385-16.7936 17.045662-33.634462 24.843815-52.09797 15.549046-21.882092 31.050831-38.675692 55.973415-47.104 7.7824-5.009723 15.517538 0 20.212185 8.428308 4.615877 30.278892 0 57.1392-4.694646 87.418092-3.150769 8.3968-20.196431 0-23.315692 3.35557 0 5.041231-7.7824 10.098215-4.678893 18.526523 7.813908 8.3968 17.108677 0 20.259446-5.072739 4.600123-3.355569 7.735138 0 7.735139 5.072739 4.694646 60.494769 4.694646 126.093785 4.694646 186.620061 4.615877 13.453785 20.164923 21.850585 20.164923 10.129723 7.829662-70.687508-15.533292-139.610585-20.149169-210.25083z m205.162338 30.278892c4.678892 13.453785 7.719385 26.891815 4.678893 35.320123-7.7824 13.390769-17.077169 21.819077-27.994585 30.247385-4.647385 0-7.750892 0-7.750892-3.387077 3.103508 0 1.543877-5.041231 3.103507-10.066708 7.750892-16.7936 12.429785-30.278892 12.429785-47.072492-4.678892-8.3968 15.533292-13.469538 15.533292-5.041231z m57.517293-3.355569c0-18.495015-4.647385-31.933046 3.135015-48.7424 12.398277-16.825108-3.135015-35.351631-3.135015-57.202216 0-11.783877-9.294769-16.825108-12.398277-21.819077-48.222523-8.3968-65.315446 57.107692-85.511877 92.427816-3.182277 13.453785-7.766646 21.882092-10.807139 35.320123-4.741908 25.206154-4.741908 52.066462-17.171692 73.964307-7.766646-21.9136-3.103508-48.773908-3.103508-70.608738 3.103508-30.278892 3.103508-55.469292 10.917416-87.4496-3.213785 0-7.813908-16.7936-7.813908-3.355569-12.429785 52.129477-7.766646 99.138954-15.517538 152.9856 0 11.815385 0 30.278892 12.429784 43.748431 10.917415-35.320123 20.2752-75.697231 27.900062-114.372924 0-5.041231 3.182277-8.365292 7.876923-8.365292 7.750892 0 15.501785 3.324062 15.501784 8.365292 0 13.469538 0 30.278892-3.103507 43.748431-7.750892 13.390769-12.398277 21.819077-20.2752 35.288616-4.584369 8.3968 3.182277 13.453785 3.182277 16.7936h9.326277c10.8544-13.422277 18.684062-30.278892 31.082338-30.278893 7.719385-5.009723 7.719385 13.469538 4.678892 21.882093-12.398277 21.882092-32.641969 21.882092-48.269784 35.35163-4.584369 3.324062 0 8.365292 3.182277 8.365293 17.077169 0 32.689231-5.041231 48.128-13.453785 0-3.355569-7.719385-13.453785-7.719385-16.825108 4.678892-8.3968 12.429785-8.3968 20.212185 0-3.103508-18.463508-7.7824-35.320123-3.103508-52.066461 3.103508-5.072738 7.750892-13.501046 7.750892-21.9136-7.750892 0-17.140185-5.041231-17.140184-10.161231 0-16.762092 9.389292-33.571446 0-52.034954h-10.838646c-9.294769 13.422277-12.429785 26.891815-24.85957 26.891816-3.103508 0-12.445538-5.041231-7.750892-13.469539 15.501785-25.206154 23.315692-57.170708 48.159508-73.964308 7.7824-5.041231 20.212185 0 27.994584 8.428308 12.429785 21.819077 12.429785 40.3456 7.7824 60.526277-3.103508 10.066708-20.212185 5.009723-15.5648 18.495015 4.7104 3.324062 7.7824 13.453785 12.461293 16.7936 3.103508 52.129477 12.398277 100.887631 12.398277 147.94437 0 5.072738 7.876923 5.072738 7.876923 5.072738 2.993231-52.066462-17.187446-104.258954-7.892677-156.309661z m233.219938-139.579077c-14.036677 0-12.4928 25.206154-20.180677 33.634461-12.461292-21.850585 12.429785-33.634462 12.429785-55.5008 3.072 0 7.750892 0 7.750892-5.009723 7.719385 13.453785 24.859569 8.3968 24.859569 16.825108 3.008985 18.463508 0 35.257108-9.326277 53.783631-7.813908 30.247385-20.212185 60.526277-35.729723 90.773661-4.773415 13.469538-7.7824 35.320123-23.410215 35.320123-9.231754-5.041231-12.335262-18.558031-9.231754-26.891815 12.398277-25.237662 24.859569-47.104 32.641969-73.995816a277.771815 277.771815 0 0 1-23.410215 65.567508c0 5.072738 0 13.469538 3.166523 13.469539 32.673477-35.320123 52.885662-92.490831 52.885662-144.5888 0.015754-3.387077-7.829662-3.387077-12.445539-3.387077z m85.480369 0c0 5.041231-4.678892 11.783877-9.326277 16.7936-7.750892 8.3968-27.994585 13.453785-23.3472 21.882092 3.135015 21.882092 32.673477 35.288615 56.004924 35.288615 7.7824 0 12.429785 13.469538 7.7824 21.850585h-7.7824c-7.845415-8.365292-15.596308-13.422277-27.994585-13.422277-12.398277-5.041231-20.180677-21.850585-32.641969-30.278892-7.750892-5.009723-23.268431 3.355569-20.2752-5.009723 0-13.469538 20.2752-16.856615 28.0576-30.3104 4.678892-8.3968-3.135015-13.422277-7.7824-16.7936-3.072-13.453785 7.7824-21.882092 7.7824-35.320123 0-4.978215 4.678892-8.3968 9.326277-4.978216 7.7824 8.365292 10.885908 21.819077 20.212184 30.247385v10.050954z m-149.236184 16.809354c0 13.453785-4.7104 16.825108-12.4928 26.923323-4.584369 3.387077-12.429785 3.387077-17.014154 3.387077-7.7824-3.387077-3.198031-13.469538-3.198031-16.856616 3.198031-21.850585 23.315692-43.685415 43.638154-26.860308-3.103508 5.009723-10.933169 8.381046-10.933169 13.406524z m-9.373539 79.005538c-7.687877 3.418585-15.533292-4.978215-15.533292-8.365292 4.773415-10.098215 7.845415-18.526523 15.533292-21.882093 4.678892 0 9.389292 0 9.389293 3.35557-0.015754 8.444062-0.015754 21.9136-9.389293 26.891815z m12.4928-57.123446c7.813908-16.825108 24.922585-30.278892 20.212185-48.7424 0-11.815385-20.212185-3.387077-28.026092-3.387077-12.366769 8.365292-23.299938 18.495015-40.392862 30.247385-12.461292 8.3968-32.641969 13.453785-24.891077 35.320123 4.773415 8.428308 20.2752 3.355569 24.891077-5.009723 7.813908 5.009723 15.596308 8.365292 20.180677 18.463507v8.3968c-4.584369 8.428308-15.533292 8.428308-12.366769 21.850585 7.7824 8.428308 12.366769 16.825108 7.7824 25.237661 0 26.923323 4.584369 48.773908 4.584369 73.995816-4.584369 35.288615-7.7824 65.567508-7.7824 100.887631 0 5.009723 3.198031 13.422277 12.555815 16.825107 7.656369-63.913354-12.555815-129.480862 3.072-195.079877 4.584369-10.066708 20.180677-13.453785 27.994585-21.882092 4.647385-4.978215-3.103508-13.422277 4.647385-18.463508-7.750892-11.768123-15.580554-25.221908-12.461293-38.659938z m76.1856 104.2432c-3.072 0-7.845415-3.355569-3.072-8.428308 7.687877-5.072738 7.687877-21.850585 20.180677-21.850584 3.040492 0 3.040492 5.041231 7.750893 8.3968-7.750892 8.365292-12.524308 21.882092-24.85957 21.882092z m4.615877 95.814892c-12.461292 0-15.5648-21.850585 0-30.247384h7.719385c4.773415 0 3.198031 5.041231 4.773415 8.3968 3.040492 13.453785-4.773415 26.923323-12.4928 21.850584z m68.418954-33.634461c-7.7824-18.463508-32.641969-10.066708-40.392861-18.463508-20.306708-16.825108 0-43.716923 7.750892-65.599015 0-3.355569-9.326277 0-10.885908-3.35557-9.357785-18.463508-20.149169-30.247385-32.578954-13.453784 0 0 7.687877 3.387077 7.687877 8.3968 4.741908 13.469538-12.461292 21.850585-20.149169 30.278892-4.678892 5.041231 0 18.495015 4.584369 21.850585 7.876923 5.041231 10.948923-13.501046 20.306708-16.7936 2.977477 0 7.750892 0 7.750892 3.292553 3.040492 18.558031 7.750892 35.383138-7.750892 48.805416-9.357785 5.041231-17.2032 8.428308-29.569969 8.428308-7.7824 5.041231-3.103508 13.453785-3.103508 18.495015 12.366769 21.882092 32.673477 30.3104 40.424369 52.160985h7.750893c0-21.850585 4.647385-43.748431 0-70.640247 0-8.428308 7.7824-16.856615 20.212184-13.453784 12.429785 10.066708 7.750892 26.891815 20.180677 35.288615h7.7824c12.382523-8.412554 0-16.809354 0-25.237661z m282.954831-149.598523c-3.135015-1.685662-3.135015-3.387077-6.270031-3.387077-4.678892 0-10.838646-5.009723-13.973661-5.009723-4.647385-25.269169 15.501785-47.072492 35.729723-30.278893 7.813908 13.453785 12.461292 30.278892-4.678893 43.685416-3.024738 0-7.656369 0-10.807138-5.009723z m-79.352123 57.1392c-4.678892 11.783877 7.813908 16.762092-3.103508 20.180676-12.398277 5.009723-7.750892-6.711138-15.501785-11.783876 12.398277-13.422277 7.750892-33.602954 20.14917-43.685416 4.741908 0 12.524308 10.098215 4.741907 18.463508-4.741908 3.402831-6.285785 13.438031-6.285784 16.825108z m-13.973662 30.278892c-4.647385 8.333785 0 30.247385-15.501784 21.850584-6.238523-6.711138-7.7824-23.504738 3.103507-35.35163 4.647385-0.015754 13.973662 10.145477 12.398277 13.501046z m147.676554 85.748184c-1.480862-3.355569-3.040492-15.139446-3.040492-20.180676 0-3.387077-7.813908-3.387077-7.813908-3.387077-3.135015 16.825108 6.222769 60.557785-15.533292 43.716923-26.466462-20.149169-14.005169-70.577231-6.159754-105.913108 0-3.355569-10.980431-3.355569-14.005169-3.355569-4.678892 3.355569-20.212185 11.689354-15.596308 3.355569 0-21.882092 18.621046-35.288615 31.113846-52.129477v-13.453785c0-3.387077-3.072-3.387077-7.813908-3.387076-23.299938 21.850585-43.543631 33.665969-73.050584 52.160984 0 0 0 8.3968-3.008985 8.3968h-7.876923c-4.615877-5.104246-4.615877-8.3968-4.615877-13.469538 7.7824-16.7936 15.501785-30.247385 12.4928-47.072493-4.7104-8.3968-7.876923-26.860308-20.306707-18.495015-12.429785 18.495015-7.656369 48.773908-27.93157 62.211938-4.678892 0-4.678892-5.041231-4.678892-5.04123 6.238523-21.850585 0-20.180677 7.7824-36.990031 0-5.041231 3.072-8.428308 1.512369-18.495015l-1.512369-6.711139c-1.543877-8.428308 1.512369-6.742646 1.512369-10.129723 4.678892-5.009723 1.575385-6.711138 6.238523-10.098215 12.398277-8.3968 20.149169-21.850585 32.673477-30.247385-3.166523 0-3.166523-5.072738-3.166523-10.066708-9.357785 0-12.429785-8.428308-17.108677-8.428307-15.501785 8.428308-27.931569 30.278892-32.610461 52.129477-3.103508 48.773908 0 92.490831-7.750893 139.531815-3.166523 13.453785-27.994585 13.453785-40.392861 21.850585-3.135015 0 0 18.526523 12.398277 18.526523l12.461292-13.469539c4.615877 0 12.366769 0 12.366769 5.041231 0 25.237662-20.149169 47.104-17.045661 73.995815 0 0 12.429785-1.717169 12.429784-6.742646 3.072-30.215877 9.294769-60.526277 17.108677-90.805169 4.647385-5.009723 3.103508-8.3968 7.7824-11.752369 3.103508 0 3.103508 3.355569 7.750893 8.428307 3.103508 8.365292-20.212185 15.139446-3.135016 20.14917 3.135015 1.654154 6.238523-11.783877 10.885908-15.107939 4.773415 0 7.750892 0 7.750892 3.324062 4.678892 26.923323-12.398277 43.716923-7.750892 70.671754 4.773415 8.365292 7.750892 16.7936 7.750892 25.174646h7.750893l-3.072-3.35557c0-5.009723 7.813908-8.365292 7.813907-8.365292-17.140185-35.351631-4.741908-70.671754-4.741907-104.306215 0-13.453785 15.627815-21.819077 24.954092-26.860308 10.807138 0 23.236923-13.453785 35.776984-16.856615 4.647385 0 0 6.711138 0 11.815384-7.813908 21.850585-10.980431 43.716923-20.212184 65.536-7.750892 26.923323-14.068185 50.491077-10.948923 77.319877 0 0 9.389292 0 9.389292-5.009723-3.198031-30.215877 12.429785-55.469292 17.077169-82.376861 3.135015-8.428308 9.357785-25.237662 17.07717-28.577477 4.7104 0 7.813908 0 7.813907 3.355569 0 30.247385-3.103508 52.129477 0 84.062523 4.678892 11.783877 17.108677 16.825108 27.931569 20.180677 4.678892 0 3.135015 3.355569 9.29477 1.717169 7.7824 1.6384 7.7824-1.717169 10.948923-1.717169 16.9984-8.365292 12.445538-28.577477 3.040492-40.298339z m90.175015-94.160738c-3.135015 0-7.7824 0-7.7824-5.072738-7.750892-33.602954 12.461292-55.453538 35.776985-73.9328 0 18.495015-3.103508 35.288615-15.501785 43.685415 3.103508 5.041231 7.719385 8.3968 7.719385 8.3968 40.455877-33.602954 72.987569-77.319877 121.225846-77.319877 28.026092-5.041231 76.217108 35.320123 52.885662 60.526277-9.326277 8.3968-32.641969 5.041231-49.750646 5.041231 4.7104-13.453785 20.212185-18.463508 29.506953-26.923323v-8.3968c-17.045662-16.7936-37.257846-21.850585-57.47003-13.422277-23.410215 13.422277-48.191015 35.288615-71.569723 48.7424-17.045662 8.3968-17.045662 33.602954-32.547447 43.716923-4.678892 0.015754-7.813908-5.041231-12.4928-5.041231z m96.366277-117.681231c-13.973662-5.041231-23.299938-30.278892-7.750892-35.320123 7.750892-3.355569 12.461292 8.428308 20.243692 18.526523 4.7104 8.3968 0 21.803323-12.4928 16.7936z m4.7104 95.814893c0 13.469538-7.845415 26.923323-15.5648 21.882092-17.077169 0-24.828062 16.746338-40.455877 13.453784 3.135015 0 3.135015-5.041231 3.135016-8.3968h7.813908c9.326277-13.453785 17.077169-21.882092 24.828061-35.320123 0-5.009723 0-8.3968-4.647385-8.3968 4.647385 0 4.647385-5.041231 4.647385-8.3968 12.398277 3.324062 20.243692 8.365292 20.243692 25.174647z m24.828062 5.04123c-7.750892-6.711138-12.335262-21.850585-4.647385-21.850584 7.750892-5.041231 12.429785 8.3968 20.180677 16.7936-4.615877 0-4.615877 5.041231-4.615877 8.428307-3.135015 0.015754-7.798154 0.015754-10.917415-3.371323z m-9.294769 60.557785c-3.040492 13.422277 0 26.860308-7.750893 38.644185-7.7824 10.098215-23.3472 13.469538-20.243692 21.882092 0 13.453785 17.2032-3.387077 27.994585-3.387077 4.647385 0 9.294769 3.387077 9.294769 8.428308 3.103508 13.453785 0 25.206154-12.335262 30.278892-20.338215 0-45.134769 5.041231-65.378461 0 4.7104-8.428308-12.4928-21.882092 0-25.269169 12.4928 0 24.859569-10.066708 24.859569-21.850585 3.135015 0 7.7824 0 7.7824-5.041231 4.678892-13.453785 15.533292-26.923323 4.678892-35.288615-4.678892 0-12.461292-3.355569-17.077169-3.355569 12.398277-10.129723 24.796554-13.469538 37.383877-21.882093 7.750892 0.015754 15.438769 3.355569 10.791385 16.840862z m186.557046-30.278892a48.521846 48.521846 0 0 0-12.461292 13.453784c0-13.453785 7.750892-18.495015 15.533292-26.923323 12.4928-26.860308 17.171692-60.494769 37.289354-82.376861 3.103508-5.009723 15.5648-5.009723 23.410215 0 12.398277 8.428308 12.398277 21.882092 7.750892 35.320123-3.103508 3.387077-7.750892 8.365292-15.596307 8.365292-12.461292 8.428308-15.5648 25.269169-27.93157 38.675692-7.750892 5.088492-20.243692 5.088492-27.994584 13.485293z m52.806892 97.500553c15.627815 0 27.994585-18.495015 38.864739-31.933046v-8.428307c4.7104 0 9.326277-10.066708 17.140184-5.041231 10.917415 8.428308 10.917415 21.882092 20.212185 30.278892 3.135015 13.469538 0 30.278892-17.077169 30.278892-10.948923-3.324062-3.135015-21.882092-15.5648-25.237661-4.7104 0-6.191262 3.355569-9.29477 3.355569-20.212185 13.469538-32.736492 43.716923-57.501538 35.351631 0 0-6.238523-16.7936-1.575385-21.882092 3.008985-8.3968 7.687877-13.469538 7.687877-21.882093 12.461292-16.7936 20.243692-35.288615 32.736493-47.040984 12.366769-18.526523 12.366769-53.878154 35.666707-53.878154 4.7104 0 7.845415 6.774154 7.845416 11.846892-9.4208 8.365292-20.2752 0-24.85957 13.453785-4.678892 8.428308 12.398277 5.009723 7.750893 13.453784-15.627815 26.891815-35.761231 43.685415-48.222523 70.577231-4.615877 8.428308 1.543877 6.726892 6.191261 6.726892z m71.569723-154.671261c-4.647385 0-7.750892 0-7.750892-3.355569 0-13.453785 0-26.923323 7.750892-40.3456 4.647385 8.3968 15.470277 8.3968 20.117662 18.495015 4.741908 11.752369-4.647385 25.206154-12.335262 30.247385 0 0-3.135015-5.041231-7.7824-5.041231z" fill="" p-id="3176"></path><path d="M30.373415 376.642954c23.662277-1.480862 43.023754 15.296985 47.3088 37.242092v290.973539c-0.519877 82.455631 65.866831 148.921108 148.590277 148.858092 80.943262 0.063015 147.266954-66.402462 148.574523-148.858092V495.064615c-1.543877-159.870031 127.7952-289.429662 287.098093-290.94203 112.513969-0.803446 204.5952-77.6192 229.659569-182.744616-57.800862 44.032-131.355569 71.853292-209.400123 71.081354-15.486031 0.771938-13.847631 1.669908-27.0336 0h3.371323c-223.657354 0-400.7936 178.7904-401.880615 402.605292v196.261416-3.355569a17.014154 17.014154 0 0 0 0 3.355569c-0.110277 19.944369-17.565538 37.446892-40.503139 37.226338-20.101908 0.220554-37.604431-17.297723-37.163323-37.226338-0.425354-1.717169-0.425354-1.811692 0-3.355569V417.256369c-0.425354-27.317169-21.283446-48.285538-47.261538-47.371815 2.205538-15.486031 15.296985-27.128123 30.420676-27.080862 5.655631-0.047262 10.381785 1.118523 13.5168 3.402831 6.5536 1.512369 13.894892 2.646646 20.259447 3.371323 42.330585-0.724677 75.602708-34.059815 74.295138-74.452677 1.307569-1.591138 1.276062-2.4576 0-3.355569-15.7696 21.535508-42.724431 35.84-74.295138 37.210585-3.938462-2.804185-11.579077-2.741169-16.919631-3.387077-34.863262 0.645908-62.936615 28.719262-64.149662 64.291446H0v6.7584h33.807754-3.434339" fill="#ED1C24" p-id="3177"></path><path d="M661.945108 339.432369c-86.016-0.787692-155.884308 69.238154-155.364431 155.632246v-3.355569 243.617477c-0.6144 120.060062-96.224492 216.615385-216.142769 216.552369-83.164554 0.063015-156.0576-48.3328-192.496246-118.437415 32.736492 31.287138 77.713723 51.562338 128.33083 50.743138 98.162215 0.834954 178.506831-79.6672 179.010954-179.32603V495.064615c-0.378092-142.367508 114.829785-257.732923 256.661662-257.15003h-6.774154c76.232862-0.598646 145.140185-31.775508 195.883323-81.226831-7.9872 101.391754-92.805908 181.956923-195.883323 182.744615h6.774154" fill="#ED1C24" p-id="3178"></path><path d="M624.781785 566.130215c-1.134277-22.795815 16.068923-40.062031 37.131815-40.581907 21.519754 0.519877 38.722954 17.786092 37.131815 40.581907 1.591138 3.166523 0.771938 7.624862 0 10.161231-2.095262 7.876923-9.751631 14.556554-20.212184 13.564062-8.963938 0.992492-17.266215-7.357046-16.919631-16.919631-0.346585-3.261046 0.126031-5.687138 0-6.805662v-3.355569c-2.331569 8.916677-3.906954 16.951138-3.387077 23.662277-0.519877 38.927754 29.696 69.175138 67.568246 67.662769 26.387692 1.512369 49.687631-14.430523 60.809846-37.163323a114.120862 114.120862 0 0 0 13.469539-60.920123c1.370585-72.010831-57.690585-131.229538-131.654892-131.969969-71.979323 0.740431-131.072 59.959138-131.749416 131.969969v179.326031c0 136.8064-109.930338 246.925785-246.547692 247.020308a221.719631 221.719631 0 0 1-54.019939-6.774154h-3.371323c34.374892 16.305231 74.499938 25.962338 118.232616 27.049354 149.425231-1.071262 271.659323-123.541662 270.146954-274.053908V562.774646l3.371323 3.355569" fill="#ED1C24" p-id="3179"></path></svg>