<?xml version="1.0" standalone="no"?><!DOCTYPE svg PUBLIC "-//W3C//DTD SVG 1.1//EN" "http://www.w3.org/Graphics/SVG/1.1/DTD/svg11.dtd"><svg t="1553328465827" class="icon" style="" viewBox="0 0 1024 1024" version="1.1" xmlns="http://www.w3.org/2000/svg" p-id="3193" xmlns:xlink="http://www.w3.org/1999/xlink" width="200" height="200"><defs><style type="text/css"></style></defs><path d="M886.354587 713.607036c-20.467719-48.406156-49.736558-91.797721-87.090146-129.151309-37.353588-37.353588-80.745153-66.622427-129.151309-87.090146-16.06716-6.754347-32.441335-12.485309-49.122526-17.192884C682.598441 443.126124 723.840895 375.684989 723.840895 298.624026c0-116.768339-95.072556-211.840895-211.840895-211.840895s-211.840895 95.072556-211.840895 211.840895c0 76.958625 41.242455 144.502099 102.85029 181.548671-16.681191 4.605237-33.055367 10.336198-49.122526 17.192884-48.406156 20.467719-91.797721 49.736558-129.151309 87.090146-37.353588 37.353588-66.622427 80.745153-87.090146 129.151309-21.18409 50.145912-31.929642 103.361983-31.929642 158.113132 0 12.485309 10.029182 22.514491 22.514491 22.514491s22.514491-10.029182 22.514491-22.514491c0-199.150909 162.104337-361.255247 361.255247-361.255247s361.255247 162.104337 361.255247 361.255247c0 12.485309 10.029182 22.514491 22.514491 22.514491s22.514491-10.029182 22.514491-22.514491C918.284229 816.969019 907.538677 763.752948 886.354587 713.607036zM345.188087 298.624026c0-92.002399 74.809514-166.811913 166.811913-166.811913s166.811913 74.809514 166.811913 166.811913-74.809514 166.811913-166.811913 166.811913S345.188087 390.626424 345.188087 298.624026z" p-id="3194" fill="#dbdbdb"></path><path d="M512 1255.489906" p-id="3195" fill="#dbdbdb"></path></svg>