<?xml version="1.0" standalone="no"?><!DOCTYPE svg PUBLIC "-//W3C//DTD SVG 1.1//EN" "http://www.w3.org/Graphics/SVG/1.1/DTD/svg11.dtd"><svg t="1552482155885" class="icon" style="" viewBox="0 0 1024 1024" version="1.1" xmlns="http://www.w3.org/2000/svg" p-id="5109" xmlns:xlink="http://www.w3.org/1999/xlink" width="200" height="200"><defs><style type="text/css"></style></defs><path d="M874.7 277.3h-85.3V106.7c0-23.6-19.1-42.7-42.7-42.7H149.3c-23.6 0-42.7 19.1-42.7 42.7v682.7c0 23.6 19.1 42.7 42.7 42.7h128v85.3c0 23.6 19.1 42.7 42.7 42.7h554.7c23.6 0 42.7-19.1 42.7-42.7V320c-0.1-23.6-19.2-42.7-42.7-42.7z m-576-170.6h170.7v298.7l-75.8-37.9c-6-3-13.1-3-19.1 0l-75.8 37.9V106.7z m-128 682.6c-11.8 0-21.3-9.6-21.3-21.3V128c0-11.8 9.6-21.3 21.3-21.3H256v328.1c0 15.9 16.7 26.2 30.9 19.1l97.1-48.6 97.1 48.6c14.2 7.1 30.9-3.2 30.9-19.1V106.7h213.3c11.8 0 21.3 9.6 21.3 21.3v640c0 11.8-9.6 21.3-21.3 21.3H170.7z m704 106.7c0 11.8-9.6 21.3-21.3 21.3h-512c-11.8 0-21.3-9.6-21.3-21.3v-64h426.7c23.6 0 42.7-19.1 42.7-42.7V320h64c11.8 0 21.3 9.6 21.3 21.3V896z" fill="#dbdbdb" p-id="5110"></path><path d="M277.3 554.7m-21.3 0a21.3 21.3 0 1 0 42.6 0 21.3 21.3 0 1 0-42.6 0Z" fill="#dbdbdb" p-id="5111"></path><path d="M618.7 533.3h-256c-11.7 0-21.3 9.6-21.3 21.3 0 11.7 9.6 21.3 21.3 21.3h256c11.7 0 21.3-9.6 21.3-21.3 0-11.7-9.6-21.3-21.3-21.3z" fill="#dbdbdb" p-id="5112"></path><path d="M277.3 661.3m-21.3 0a21.3 21.3 0 1 0 42.6 0 21.3 21.3 0 1 0-42.6 0Z" fill="#dbdbdb" p-id="5113"></path><path d="M618.7 640h-256c-11.7 0-21.3 9.6-21.3 21.3 0 11.7 9.6 21.3 21.3 21.3h256c11.7 0 21.3-9.6 21.3-21.3 0-11.7-9.6-21.3-21.3-21.3z" fill="#dbdbdb" p-id="5114"></path></svg>