<?xml version="1.0" standalone="no"?><!DOCTYPE svg PUBLIC "-//W3C//DTD SVG 1.1//EN" "http://www.w3.org/Graphics/SVG/1.1/DTD/svg11.dtd"><svg t="1552482077556" class="icon" style="" viewBox="0 0 1024 1024" version="1.1" xmlns="http://www.w3.org/2000/svg" p-id="3664" xmlns:xlink="http://www.w3.org/1999/xlink" width="200" height="200"><defs><style type="text/css"></style></defs><path d="M839.856561 63.002916 183.822121 63.002916c-16.48444 0-119.278617 0-119.278617 119.278617l0 656.000672c0 119.278617 119.278617 119.278617 119.278617 119.278617l656.035464 0c119.27964 0 119.27964-119.278617 119.27964-119.278617l0-656.000672C959.136202 63.002916 856.282672 63.002916 839.856561 63.002916L839.856561 63.002916zM899.49894 838.282205c0 0 0 59.636239-59.641355 59.636239L183.822121 897.918443c0 0-59.636239 0-59.636239-59.636239l0-656.000672c0-59.643402 43.150776-59.643402 59.636239-59.643402l656.035464 0c16.420995 0 59.636239 0 59.636239 59.643402l0 656.000672L899.49894 838.282205zM251.897565 361.185132l519.339152 0 0-59.636239L251.897565 301.548894 251.897565 361.185132 251.897565 361.185132zM251.897565 540.098965l519.339152 0 0-59.641355L251.897565 480.45761 251.897565 540.098965 251.897565 540.098965zM251.897565 719.004611l519.339152 0 0-59.631122L251.897565 659.373489 251.897565 719.004611 251.897565 719.004611zM251.897565 719.004611" p-id="3665"></path></svg>