<?xml version="1.0" standalone="no"?><!DOCTYPE svg PUBLIC "-//W3C//DTD SVG 1.1//EN" "http://www.w3.org/Graphics/SVG/1.1/DTD/svg11.dtd"><svg t="1552481924478" class="icon" style="" viewBox="0 0 1024 1024" version="1.1" xmlns="http://www.w3.org/2000/svg" p-id="2491" xmlns:xlink="http://www.w3.org/1999/xlink" width="200" height="200"><defs><style type="text/css"></style></defs><path d="M128 192V768h362.666667V320a128 128 0 0 0-128-128H128z m0-42.666667h234.666667a170.666667 170.666667 0 0 1 170.666666 170.666667V768a42.666667 42.666667 0 0 1-42.666666 42.666667H128a42.666667 42.666667 0 0 1-42.666667-42.666667V192a42.666667 42.666667 0 0 1 42.666667-42.666667z" fill="#dbdbdb" p-id="2492"></path><path d="M896 192V768h-362.666667V320a128 128 0 0 1 128-128H896z m0-42.666667h-234.666667a170.666667 170.666667 0 0 0-170.666666 170.666667V768a42.666667 42.666667 0 0 0 42.666666 42.666667H896a42.666667 42.666667 0 0 0 42.666667-42.666667V192a42.666667 42.666667 0 0 0-42.666667-42.666667z" fill="#dbdbdb" p-id="2493"></path><path d="M170.666667 853.333333h682.666666v42.666667H170.666667zM256 384h128v42.666667H256zM640 384h128v42.666667h-128zM256 512h128v42.666667H256zM640 512h128v42.666667h-128z" fill="#dbdbdb" p-id="2494"></path></svg>